<svg xmlns="http://www.w3.org/2000/svg" viewBox="0 0 1210.94 173.22" width="1211" height="173" role="img" aria-label="safeticket"><path fill="#000000" fill-rule="evenodd" d="M 961.32,144.56 C 963.26,150.94 967.20,156.14 972.73,159.86 C 984.02,167.26 997.87,166.62 1010.80,166.50 C 1027.41,166.34 1044.04,166.83 1060.65,166.49 C 1067.86,166.29 1071.70,163.35 1073.98,156.53 L 1075.35,152.15 C 1075.98,150.02 1077.13,147.09 1075.77,145.03 C 1074.05,142.96 1070.44,143.30 1068.03,143.28 L 1003.77,143.07 C 994.14,142.22 982.86,131.73 991.26,123.87 C 993.54,122.03 996.79,122.19 999.56,122.16 C 1018.93,122.01 1051.67,124.95 1069.30,119.96 C 1086.32,115.15 1097.94,99.24 1096.90,81.42 C 1096.22,72.07 1091.41,64.02 1083.29,59.26 C 1072.51,53.13 1060.19,53.77 1048.21,53.77 C 1025.00,53.77 999.35,50.51 981.54,68.69 C 971.00,79.45 968.61,95.44 964.91,109.45 C 961.91,120.84 957.90,132.80 961.32,144.56 Z M 1017.48,76.96 L 1054.20,76.74 C 1074.31,77.83 1071.31,98.78 1052.64,99.58 L 1005.53,99.63 C 1003.22,99.60 999.90,99.86 998.22,97.93 C 992.79,90.08 1007.80,77.90 1017.48,76.96 Z M 946.06,53.84 C 941.69,54.03 938.21,55.28 934.64,57.79 L 874.95,102.79 C 872.98,104.28 870.47,105.98 870.00,108.59 C 869.76,111.36 872.09,113.72 873.73,115.69 L 910.94,160.59 C 914.58,164.79 918.31,166.32 923.83,166.48 L 941.82,166.50 C 943.93,166.47 947.84,166.81 949.05,164.59 C 949.96,162.18 947.00,159.30 945.64,157.63 L 910.18,115.60 C 908.76,113.81 906.81,111.69 906.98,109.24 C 907.40,106.70 910.00,105.03 911.88,103.56 L 968.78,60.55 C 970.12,59.50 973.36,57.48 972.87,55.40 C 971.95,53.34 967.68,53.75 965.89,53.71 L 946.06,53.84 Z M 696.80,141.00 C 698.23,147.92 702.06,153.86 707.59,158.24 C 718.42,166.58 732.57,166.52 745.58,166.52 C 761.15,166.52 776.81,167.02 792.36,166.41 C 799.67,166.07 803.69,163.12 806.09,156.21 C 806.54,154.90 806.96,153.58 807.39,152.25 C 808.05,150.15 809.28,147.26 808.00,145.17 C 806.28,142.97 802.41,143.32 799.93,143.29 L 741.64,142.93 C 730.70,141.60 724.87,134.36 726.17,123.39 L 733.73,93.20 C 737.36,84.52 745.25,78.58 754.52,77.22 L 813.16,76.61 C 820.53,76.40 824.44,73.42 826.80,66.46 C 827.24,65.14 827.65,63.81 828.06,62.48 C 828.69,60.37 829.85,57.44 828.49,55.40 C 826.79,53.35 823.22,53.69 820.83,53.67 C 805.56,53.58 790.29,53.65 775.02,53.65 C 751.76,53.65 727.75,53.92 712.81,74.91 C 705.45,85.24 703.37,97.79 700.40,109.84 C 697.88,120.05 694.77,130.42 696.80,141.00 Z M 683.10,53.76 L 674.55,53.80 C 667.14,53.95 663.74,56.68 661.89,63.84 L 637.80,157.38 C 637.24,159.63 636.14,162.84 637.71,164.90 C 639.57,166.86 643.13,166.50 645.59,166.52 L 653.22,166.48 C 660.92,166.23 664.95,162.84 667.11,155.51 L 690.92,62.76 C 691.45,60.53 692.40,57.60 690.94,55.54 C 689.12,53.46 685.59,53.77 683.10,53.76 Z M 389.64,144.56 C 391.64,150.93 395.65,156.11 401.18,159.83 C 412.01,166.89 425.18,166.49 437.58,166.52 C 455.12,166.55 472.71,166.89 490.25,166.48 C 497.49,166.26 501.24,163.43 503.56,156.60 L 505.09,151.83 C 505.72,149.80 506.97,146.85 505.62,144.87 C 503.90,142.89 500.23,143.29 497.88,143.28 L 431.93,142.97 C 422.51,142.18 411.03,131.76 419.66,123.74 C 421.95,121.90 425.20,122.06 427.99,122.03 C 441.47,121.94 454.96,122.28 468.44,122.10 C 494.96,121.75 523.12,119.32 526.39,86.24 C 527.30,75.50 522.40,65.23 513.21,59.55 C 501.03,52.23 486.07,53.69 472.43,53.65 C 446.86,53.58 416.10,51.34 402.33,78.13 C 397.30,87.93 395.50,99.62 392.82,110.22 C 390.02,121.28 386.24,133.24 389.64,144.56 Z M 483.36,76.82 C 503.09,77.83 500.46,98.40 482.14,99.47 L 433.71,99.63 C 431.39,99.60 428.08,99.85 426.42,97.89 C 421.16,90.06 435.92,77.94 445.26,77.00 L 483.36,76.82 Z M 172.47,63.69 L 170.98,68.47 C 170.38,70.42 169.23,73.12 170.45,75.04 C 172.08,77.05 175.71,76.70 178.02,76.73 L 241.39,76.75 C 250.28,77.27 262.83,87.31 253.35,95.03 C 251.07,96.62 248.04,96.52 245.37,96.58 C 212.80,97.25 158.32,86.73 148.18,128.04 C 146.99,132.90 146.42,137.95 146.88,142.95 C 147.87,152.52 153.60,160.05 162.55,163.59 C 178.44,169.65 201.46,166.26 218.45,166.42 C 229.98,166.54 242.69,167.95 253.63,163.52 C 259.46,161.07 264.15,156.81 267.31,151.35 C 271.72,143.48 273.03,134.02 275.31,125.40 C 279.22,110.60 287.06,92.96 284.48,77.49 C 282.98,69.16 278.15,62.36 270.70,58.32 C 260.19,52.80 248.11,53.65 236.61,53.65 C 219.67,53.65 202.68,53.25 185.75,53.69 C 178.46,53.94 174.70,56.78 172.47,63.69 Z M 192.22,119.40 L 239.52,119.28 C 241.79,119.31 245.16,118.99 246.80,120.91 C 248.20,123.02 246.96,126.24 246.38,128.43 C 246.12,129.38 245.85,130.32 245.57,131.25 C 243.24,138.64 238.57,141.90 230.90,142.12 L 187.31,142.13 C 176.92,141.72 171.47,133.75 178.94,124.93 C 182.24,121.04 187.32,119.73 192.22,119.40 Z M 19.47,95.23 C 19.56,105.53 25.21,114.01 34.81,117.85 C 52.41,124.62 73.81,120.27 92.28,121.25 C 111.56,122.44 105.48,141.60 89.16,142.22 L 23.52,142.34 C 15.70,142.70 11.07,146.23 8.46,153.58 L 7.07,157.95 C 6.47,160.00 5.25,162.96 6.64,164.92 C 8.41,166.89 12.05,166.50 14.43,166.52 C 22.83,166.56 31.24,166.52 39.64,166.52 C 51.01,166.52 62.39,166.52 73.76,166.52 C 98.61,166.52 124.66,165.80 132.06,136.55 C 133.22,131.96 133.82,127.22 133.45,122.49 C 132.60,113.28 127.49,106.08 119.10,102.16 C 101.45,94.17 79.84,98.94 61.09,97.88 C 41.61,96.59 48.10,78.03 64.20,76.89 L 126.96,76.60 C 134.25,76.34 138.26,73.27 140.65,66.43 C 141.10,65.11 141.54,63.79 141.96,62.47 C 142.62,60.36 143.80,57.46 142.44,55.41 C 140.71,53.35 137.11,53.68 134.70,53.66 C 126.30,53.60 117.89,53.65 109.49,53.65 C 98.54,53.65 87.58,53.65 76.62,53.65 C 53.09,53.65 30.51,54.61 21.89,80.97 C 20.38,85.58 19.48,90.37 19.47,95.23 Z M 1136.88,35.14 L 1134.21,45.74 C 1133.64,47.99 1133.09,50.43 1131.30,52.05 C 1129.23,53.67 1126.43,53.66 1123.91,53.75 C 1123.47,53.77 1123.02,53.79 1122.58,53.80 C 1115.91,54.10 1113.11,56.90 1111.14,63.12 L 1109.61,68.33 C 1109.06,70.35 1108.02,73.08 1109.27,75.02 C 1110.87,77.00 1114.21,76.72 1116.49,76.76 C 1117.08,76.77 1116.79,76.76 1117.38,76.77 C 1119.49,76.81 1122.30,76.61 1123.92,78.24 C 1125.52,80.26 1124.37,83.48 1123.81,85.70 C 1119.83,101.16 1110.65,125.47 1112.05,140.90 C 1113.08,150.62 1118.68,158.83 1127.65,162.86 C 1140.78,168.56 1156.66,166.59 1170.62,166.38 C 1177.96,166.23 1181.91,163.26 1184.32,156.35 C 1184.77,155.04 1185.20,153.71 1185.60,152.38 C 1186.25,150.26 1187.43,147.35 1186.13,145.26 C 1184.40,143.05 1180.53,143.43 1178.04,143.41 L 1155.57,143.31 C 1144.82,142.75 1140.08,135.60 1142.01,125.24 L 1152.48,84.57 C 1153.09,82.22 1153.69,79.61 1155.70,78.05 C 1157.89,76.58 1160.75,76.68 1163.29,76.66 L 1188.93,76.61 C 1196.29,76.43 1200.33,73.59 1202.61,66.55 L 1203.94,62.15 C 1204.50,60.17 1205.60,57.43 1204.42,55.49 C 1202.79,53.42 1199.12,53.80 1196.79,53.77 L 1169.43,53.71 C 1167.19,53.70 1163.87,54.00 1162.25,52.09 C 1160.91,50.08 1161.98,47.08 1162.50,44.96 L 1165.59,32.74 C 1166.08,30.64 1166.96,27.88 1165.68,25.91 C 1163.99,23.83 1160.42,24.12 1158.02,24.06 L 1151.29,24.07 C 1143.49,24.34 1139.02,27.58 1136.88,35.14 Z M 569.30,35.16 L 566.61,45.74 C 565.98,48.09 565.36,50.69 563.39,52.29 C 561.33,53.72 558.71,53.70 556.30,53.77 C 555.86,53.78 555.41,53.79 554.97,53.81 C 548.32,54.05 545.26,56.67 543.24,62.91 L 541.75,67.70 C 541.11,69.86 539.97,72.76 541.26,74.87 C 542.83,76.92 546.13,76.70 548.43,76.76 C 548.87,76.77 549.32,76.77 549.76,76.78 C 551.88,76.83 554.71,76.66 556.31,78.31 C 557.89,80.35 556.75,83.58 556.20,85.81 C 552.42,101.02 543.34,124.51 544.26,139.62 C 545.01,149.58 550.49,157.98 559.53,162.36 C 573.21,168.75 590.30,166.71 604.98,166.39 C 612.13,166.18 615.93,163.29 618.33,156.59 C 618.79,155.28 619.24,153.97 619.66,152.65 C 620.37,150.41 621.62,147.30 620.10,145.15 C 618.30,143.11 614.74,143.43 612.28,143.41 L 588.47,143.31 C 577.73,142.75 572.95,135.75 574.64,125.35 L 585.20,84.72 C 585.80,82.38 586.37,79.75 588.31,78.13 C 590.55,76.51 593.61,76.68 596.24,76.65 L 622.33,76.62 C 629.69,76.44 633.72,73.56 636.05,66.55 L 637.40,62.16 C 637.99,60.16 639.11,57.47 637.95,55.49 C 636.28,53.28 632.37,53.68 629.93,53.65 L 602.03,53.64 C 599.76,53.61 596.39,53.94 594.74,52.02 C 593.39,50.02 594.54,47.03 595.08,44.93 L 598.06,33.12 C 598.60,30.90 599.58,27.95 598.16,25.88 C 596.32,23.71 592.52,24.06 589.96,24.03 L 583.67,24.07 C 575.82,24.34 571.49,27.60 569.30,35.16 Z M 669.92,19.51 C 669.67,20.46 669.44,21.41 669.23,22.37 C 667.26,31.49 670.98,36.30 680.31,36.50 L 687.05,36.49 C 694.89,36.29 698.72,33.10 700.69,25.56 C 700.90,24.75 701.10,23.93 701.28,23.11 C 703.32,13.69 699.02,8.65 689.52,8.43 L 683.67,8.44 C 675.86,8.70 671.90,12.00 669.92,19.51 Z M 859.42,16.87 L 823.50,157.74 C 822.96,159.87 821.91,162.85 823.31,164.85 C 825.09,166.86 828.69,166.49 831.10,166.52 L 841.44,166.51 C 844.01,166.47 846.83,166.53 849.04,165.03 C 851.27,163.30 851.97,160.33 852.69,157.74 L 889.07,14.81 C 889.57,12.74 890.51,9.99 889.27,8.02 C 887.60,5.94 883.98,6.30 881.61,6.28 L 873.07,6.30 C 865.45,6.50 861.46,9.50 859.42,16.87 Z M 325.34,45.71 C 324.72,48.05 324.11,50.65 322.12,52.23 C 320.18,53.56 317.74,53.57 315.47,53.65 C 314.88,53.67 314.29,53.70 313.71,53.72 C 307.11,54.09 304.21,57.12 302.29,63.24 L 300.88,68.06 C 300.30,70.11 299.23,72.81 300.38,74.83 C 301.88,76.90 305.21,76.70 307.47,76.75 C 308.07,76.76 308.66,76.77 309.25,76.78 C 311.33,76.83 314.17,76.67 315.69,78.36 C 317.09,80.34 315.99,83.33 315.47,85.44 L 296.75,157.81 C 296.23,159.95 295.20,162.94 296.67,164.92 C 298.50,166.88 302.09,166.50 304.52,166.52 L 314.86,166.49 C 317.40,166.42 320.21,166.42 322.37,164.89 C 324.46,163.18 325.06,160.40 325.69,157.90 L 344.54,84.68 C 345.17,82.35 345.77,79.74 347.75,78.16 C 350.03,76.59 353.08,76.71 355.73,76.67 L 379.11,76.61 C 386.45,76.39 390.45,73.37 392.92,66.49 C 393.38,65.18 393.82,63.86 394.24,62.54 C 394.89,60.46 396.13,57.55 394.86,55.49 C 393.23,53.40 389.61,53.70 387.25,53.67 L 361.61,53.64 C 359.39,53.61 356.30,53.86 354.60,52.15 C 352.86,49.97 354.30,46.26 355.13,43.98 C 358.06,35.95 364.41,31.19 372.72,29.76 L 392.66,29.24 C 399.84,29.03 403.72,26.23 406.17,19.48 L 407.95,14.38 C 408.61,12.45 409.83,9.78 408.63,7.84 C 406.99,5.79 403.31,6.17 400.99,6.15 C 373.78,6.00 347.15,3.18 331.23,30.14 C 328.35,35.01 326.76,40.28 325.34,45.71 Z"/></svg>